<?xml version="1.0" encoding="UTF-8"?>
<!DOCTYPE svg PUBLIC "-//W3C//DTD SVG 1.1//EN" "http://www.w3.org/Graphics/SVG/1.1/DTD/svg11.dtd">
<!-- Creator: CorelDRAW 2021.5 -->
<svg xmlns="http://www.w3.org/2000/svg" xml:space="preserve" width="26.2488mm" height="28.9402mm" version="1.1" style="shape-rendering:geometricPrecision; text-rendering:geometricPrecision; image-rendering:optimizeQuality; fill-rule:evenodd; clip-rule:evenodd"
viewBox="0 0 180.92 199.48"
 xmlns:xlink="http://www.w3.org/1999/xlink"
 xmlns:xodm="http://www.corel.com/coreldraw/odm/2003">
 <defs>
  <style type="text/css">
   <![CDATA[
    .fil0 {fill:black}
    .fil1 {fill:#FFDD28}
   ]]>
  </style>
 </defs>
 <g id="Слой_x0020_1">
  <metadata id="CorelCorpID_0Corel-Layer"/>
  <path class="fil0" d="M81.71 79.89c18.81,-8.78 22.41,15.7 25.05,22.05 1.78,4.28 3.84,6.43 5.87,10.12 9.35,17.08 -2.83,37.37 -25.7,24.32 -14.8,-8.44 -15.8,-1.33 -29.12,-4.65 -8.62,-2.15 -12.59,-9.95 -10.46,-20.26 1.98,-9.64 9.31,-12.31 16.37,-17.12 8.59,-5.85 6.52,-9.09 17.99,-14.45zm48.88 -4.1c15.29,-5.19 15.59,22.41 -0.69,27.92 -9.01,3.05 -13.49,-4.3 -12.11,-13.12 1.39,-8.89 5.87,-12.45 12.8,-14.8zm-79.34 -19.25c15.01,-5.62 20.1,23.87 7.07,29.58 -14.36,6.28 -21.33,-24.24 -7.07,-29.58zm64.38 -13.13c18.33,-3.67 14.56,29.93 -3.94,33.21 -17.64,3.13 -16.89,-29.05 3.94,-33.21zm-35.2 -8.75c17.29,-5.23 19.12,29.08 2.89,34.16 -16.25,5.08 -20.95,-28.69 -2.89,-34.16zm-80.44 -5.48l0 132.77c0,7.9 7.6,15.88 14.07,18.03 11.44,3.82 19.84,-2.47 25.86,7.7 1.49,2.53 6.08,16.87 18.93,9.89 8.57,-4.65 3.63,-14.19 17.29,-16.38 22.85,-0.76 58.13,1.38 78.2,-0.94 15.14,-1.75 26.58,-12.73 26.58,-28.52l0 -122.56c0,-15.1 -14.08,-29.18 -29.18,-29.18l-122.56 0c-15.1,0 -29.18,14.08 -29.18,29.18z"/>
  <path class="fil1" d="M81.71 79.89c-11.47,5.35 -9.4,8.59 -17.99,14.45 -7.06,4.81 -14.39,7.49 -16.37,17.12 -2.12,10.32 1.84,18.12 10.46,20.26 13.31,3.32 14.32,-3.79 29.12,4.65 22.87,13.05 35.06,-7.24 25.7,-24.32 -2.02,-3.69 -4.09,-5.84 -5.87,-10.12 -2.64,-6.35 -6.23,-30.83 -25.05,-22.05z"/>
  <path class="fil1" d="M115.63 43.41c-20.83,4.16 -21.58,36.34 -3.94,33.21 18.49,-3.28 22.27,-36.88 3.94,-33.21z"/>
  <path class="fil1" d="M80.44 34.66c-18.07,5.47 -13.36,39.24 2.89,34.16 16.24,-5.08 14.41,-39.39 -2.89,-34.16z"/>
  <path class="fil1" d="M51.25 56.54c-14.26,5.34 -7.29,35.86 7.07,29.58 13.03,-5.7 7.95,-35.19 -7.07,-29.58z"/>
  <path class="fil1" d="M130.59 75.79c-6.93,2.35 -11.42,5.91 -12.8,14.8 -1.38,8.82 3.1,16.18 12.11,13.12 16.28,-5.51 15.99,-33.11 0.69,-27.92z"/>
 </g>
</svg>
